<?xml version="1.0" encoding="utf-8"?>
<!-- Generator: Adobe Illustrator 22.0.1, SVG Export Plug-In . SVG Version: 6.00 Build 0)  -->
<svg version="1.1" id="Capa_1" xmlns="http://www.w3.org/2000/svg" xmlns:xlink="http://www.w3.org/1999/xlink" x="0px" y="0px"
	 viewBox="0 0 53.7 53.7" style="enable-background:new 0 0 53.7 53.7;" xml:space="preserve">
<style type="text/css">
	.st0{fill:#EC2020;}
</style>
<g>
	<path class="st0" d="M10.9,53.7h31.8c2.2,0,4-1.8,4-4v-20H6.9v20C6.9,51.9,8.7,53.7,10.9,53.7z"/>
	<path class="st0" d="M4.5,22.3v5.4h44.8v-5.4c0-2.2-1.8-4-4-4H33.5c5.6,0,13.6-5.4,11.8-11.1C43.9,2.4,39.5,0,35,0
		c-6.3,0-8,13.3-8,13.3h-0.2c0,0-1.6-13.3-8-13.3C14.4,0,10,2.4,8.5,7.2c-1.8,5.7,6.2,11.1,11.8,11.1H8.5
		C6.3,18.3,4.5,20.1,4.5,22.3z M39.7,4.8c0,0-0.2,6.5-9,11.4C30.7,16.2,32.3,7.9,39.7,4.8z M14.3,4.8c7.3,3,9,11.4,9,11.4
		C14.5,11.4,14.3,4.8,14.3,4.8z"/>
</g>
</svg>
