<?xml version="1.0" encoding="utf-8"?>
<!-- Generator: Adobe Illustrator 22.0.1, SVG Export Plug-In . SVG Version: 6.00 Build 0)  -->
<svg version="1.1" id="Layer_1" xmlns="http://www.w3.org/2000/svg" xmlns:xlink="http://www.w3.org/1999/xlink" x="0px" y="0px"
	 viewBox="0 0 444.9 120.5" style="enable-background:new 0 0 444.9 120.5;" xml:space="preserve">
<style type="text/css">
	.st0{fill-rule:evenodd;clip-rule:evenodd;fill:#fff;}
	.st1{fill:#fff;}
</style>
<path class="st0" d="M20.9,72L12,44.5c4.1-0.9,7.3-2,11.4-2.8c1.8,2.9,5,4.8,8.7,4.8c5.2,0,9.5-3.9,10.2-8.9l0,0
	c9.8-2.3,19.7-4.5,29.5-6.8c18.5,0.9,31.7,9.2,38.4,26.7c-16.3-11-34.7-17-28.7,9.2c-8.6,2-16.8,4.7-25.4,6.7
	c-4-15.6-19.3-16.5-25.2-3.6L20.9,72L20.9,72z M60.1,64.2l13.1-3.5c1.2-0.3,2.5,0.4,2.9,1.7v0c0.3,1.2-0.4,2.5-1.7,2.9l-13.1,3.5
	c-1.2,0.3-2.5-0.4-2.9-1.7v0C58.2,65.8,58.9,64.6,60.1,64.2L60.1,64.2z"/>
<path class="st0" d="M60.3,0c33.3,0,60.3,27,60.3,60.3c0,33.3-27,60.3-60.3,60.3S0,93.5,0,60.3C0,27,27,0,60.3,0L60.3,0z M60.3,6
	c30,0,54.2,24.3,54.2,54.2c0,30-24.3,54.2-54.2,54.2C30.3,114.5,6,90.2,6,60.3C6,30.3,30.3,6,60.3,6L60.3,6z"/>
<path class="st0" d="M94.6,102.5c-7.5,6.1-16.7,10.3-26.7,11.7l-9.8-33.7l26-7.9L94.6,102.5L94.6,102.5z"/>
<path class="st1" d="M154.5,40.1c-2.4,0-4.4-0.8-5.9-2.4c-1.6-1.6-2.4-3.5-2.4-5.8c0-2.3,0.8-4.2,2.4-5.8c1.6-1.6,3.6-2.4,5.9-2.4
	c1.5,0,2.8,0.4,4,1.1c1.2,0.7,2.2,1.6,2.8,2.8l-1.4,0.8c-0.5-1-1.2-1.7-2.2-2.3c-1-0.6-2.1-0.9-3.2-0.9c-2,0-3.6,0.6-4.8,1.9
	c-1.3,1.3-1.9,2.9-1.9,4.7c0,1.9,0.6,3.4,1.9,4.7c1.3,1.3,2.9,1.9,4.8,1.9c1.2,0,2.3-0.3,3.2-0.9c1-0.6,1.7-1.3,2.2-2.3l1.4,0.8
	c-0.6,1.2-1.6,2.1-2.8,2.8C157.4,39.7,156,40.1,154.5,40.1L154.5,40.1z M173.7,24v1.5h-4.9v14.3h-1.6V25.5h-4.9V24H173.7L173.7,24z
	 M181.6,24c1.4,0,2.6,0.5,3.6,1.4c0.9,0.9,1.4,2.1,1.4,3.6s-0.5,2.6-1.4,3.6c-0.9,0.9-2.1,1.4-3.6,1.4h-4.1v5.9H176V24H181.6
	L181.6,24z M181.6,32.4c1,0,1.8-0.3,2.4-1c0.6-0.7,1-1.5,1-2.5c0-1-0.3-1.8-1-2.5c-0.6-0.7-1.5-1-2.4-1h-4.1v7H181.6L181.6,32.4z
	 M202.3,37.7c-1.6,1.6-3.5,2.4-5.8,2.4s-4.2-0.8-5.8-2.4c-1.6-1.6-2.4-3.5-2.4-5.8c0-2.3,0.8-4.2,2.4-5.8c1.6-1.6,3.5-2.4,5.8-2.4
	s4.2,0.8,5.8,2.4c1.6,1.6,2.4,3.5,2.4,5.8C204.7,34.2,203.9,36.1,202.3,37.7L202.3,37.7z M191.8,36.6c1.3,1.3,2.8,1.9,4.7,1.9
	c1.9,0,3.4-0.6,4.7-1.9c1.3-1.3,1.9-2.9,1.9-4.7c0-1.9-0.6-3.4-1.9-4.7c-1.3-1.3-2.8-1.9-4.7-1.9c-1.9,0-3.4,0.6-4.7,1.9
	c-1.3,1.3-1.9,2.9-1.9,4.7C189.9,33.7,190.5,35.3,191.8,36.6L191.8,36.6z M217.6,39.8V26.9l-8.8,12.9h-1.4V24h1.6v12.9l8.8-12.9h1.4
	v15.8H217.6L217.6,39.8z M232.7,24v1.5h-4.9v14.3h-1.6V25.5h-4.9V24H232.7L232.7,24z M236.6,38.3h7.7v1.5H235V24h9.2v1.5h-7.6v5.6h7
	v1.5h-7V38.3L236.6,38.3z M245.5,39.8v-1.4c1.1,0.2,1.9-0.2,2.5-1c0.6-0.8,0.8-2.4,0.8-4.6V24h10.3v15.8h-1.6V25.5h-7.1v7.4
	c0,1.4-0.1,2.6-0.3,3.6c-0.2,1-0.6,1.7-1,2.2c-0.4,0.5-0.9,0.8-1.5,1C247,39.8,246.3,39.9,245.5,39.8L245.5,39.8z M268.3,29.8
	c1.4,0,2.6,0.5,3.6,1.4s1.4,2.1,1.4,3.6s-0.5,2.6-1.4,3.6c-0.9,0.9-2.1,1.4-3.6,1.4h-5.7V24h1.6v5.9H268.3L268.3,29.8z M268.3,38.3
	c1,0,1.8-0.3,2.4-1c0.6-0.7,1-1.5,1-2.5c0-1-0.3-1.8-1-2.5c-0.6-0.7-1.5-1-2.4-1h-4.1v7H268.3L268.3,38.3z M286.2,24h1.6v15.8h-1.6
	v-7.4h-8.6v7.4H276V24h1.6v6.9h8.6V24L286.2,24z M302,39.8l-1.5-3.9H293l-1.5,3.9h-1.7l6.1-15.8h1.6l6.1,15.8H302L302,39.8z
	 M293.5,34.4h6.4l-3.2-8.5L293.5,34.4L293.5,34.4z M316.1,24v15.8h-1.6v-6.3h-3.8l-4.3,6.3h-1.8l4.4-6.4c-1.1-0.2-2.1-0.7-2.8-1.6
	c-0.8-0.9-1.1-1.9-1.1-3.1c0-1.3,0.5-2.4,1.4-3.4c0.9-0.9,2-1.4,3.4-1.4H316.1L316.1,24z M309.7,32h4.7v-6.5h-4.7
	c-0.9,0-1.6,0.3-2.2,0.9c-0.6,0.6-0.9,1.4-0.9,2.3c0,0.9,0.3,1.7,0.9,2.3C308.1,31.7,308.9,32,309.7,32L309.7,32z M336.4,39.8h-2.1
	l-7.4-7.7v7.7h-1.6V24h1.6v7.2l7.2-7.2h2.1l-7.6,7.7L336.4,39.8L336.4,39.8z M350.2,37.7c-1.6,1.6-3.5,2.4-5.8,2.4s-4.2-0.8-5.8-2.4
	c-1.6-1.6-2.4-3.5-2.4-5.8c0-2.3,0.8-4.2,2.4-5.8c1.6-1.6,3.5-2.4,5.8-2.4s4.2,0.8,5.8,2.4c1.6,1.6,2.4,3.5,2.4,5.8
	C352.6,34.2,351.8,36.1,350.2,37.7L350.2,37.7z M339.7,36.6c1.3,1.3,2.8,1.9,4.7,1.9c1.9,0,3.4-0.6,4.7-1.9c1.3-1.3,1.9-2.9,1.9-4.7
	c0-1.9-0.6-3.4-1.9-4.7c-1.3-1.3-2.8-1.9-4.7-1.9c-1.9,0-3.4,0.6-4.7,1.9c-1.3,1.3-1.9,2.9-1.9,4.7
	C337.8,33.7,338.4,35.3,339.7,36.6L339.7,36.6z M369.8,24v15.8h-1.6V26.4l-5.5,9.3h-0.2l-5.5-9.3v13.4h-1.6V24h2l5.3,8.8l5.3-8.8
	H369.8L369.8,24z M384.7,24v15.8h-1.6V25.5H375v14.3h-1.6V24H384.7L384.7,24z M398.8,39.8l-1.5-3.9h-7.5l-1.5,3.9h-1.7l6.1-15.8h1.6
	l6.1,15.8H398.8L398.8,39.8z M390.4,34.4h6.4l-3.2-8.5L390.4,34.4L390.4,34.4z M412.7,24h1.6v15.8h-1.6v-7.4h-8.6v7.4h-1.6V24h1.6
	v6.9h8.6V24L412.7,24z M428.1,39.8V26.9l-8.8,12.9h-1.4V24h1.6v12.9l8.8-12.9h1.4v15.8H428.1L428.1,39.8z M443.7,24v15.8h-1.6v-6.3
	h-3.8l-4.3,6.3h-1.8l4.4-6.4c-1.1-0.2-2.1-0.7-2.8-1.6c-0.8-0.9-1.1-1.9-1.1-3.1c0-1.3,0.5-2.4,1.4-3.4c0.9-0.9,2-1.4,3.4-1.4H443.7
	L443.7,24z M437.4,32h4.7v-6.5h-4.7c-0.9,0-1.6,0.3-2.2,0.9c-0.6,0.6-0.9,1.4-0.9,2.3c0,0.9,0.3,1.7,0.9,2.3
	C435.8,31.7,436.5,32,437.4,32L437.4,32z"/>
<path class="st1" d="M164.6,95.9h11.1l-15.1-44.4h-12.9l-15.1,44.4h11.1l2.2-7h16.5L164.6,95.9L164.6,95.9z M148.9,79.5l5.2-16.3
	l5.2,16.3H148.9L148.9,79.5z M196.6,68.1h-7v-6.7H208v-9.8h-28.5v44.4h17.1c9.1,0,15.2-5.5,15.2-13.9
	C211.8,73.6,205.7,68.1,196.6,68.1L196.6,68.1z M196.6,86.4h-7v-8.9h7c2.8,0,5.1,1.2,5.1,4.4S199.4,86.4,196.6,86.4L196.6,86.4z
	 M237.4,96.8c8.1,0,15.2-4,19-10.3l-8.7-5.1c-1.9,3.4-5.8,5.5-10.3,5.5c-7.9,0-12.9-5.3-12.9-13.2s5.1-13.2,12.9-13.2
	c4.5,0,8.3,2,10.3,5.5l8.7-5.1c-3.9-6.3-11-10.3-19-10.3c-13.4,0-23.1,10-23.1,23.1C214.3,86.8,224,96.8,237.4,96.8L237.4,96.8z
	 M281.7,96.8c12.7,0,23.1-10,23.1-23.1c0-13.1-10.3-23.1-23.1-23.1c-12.7,0-23.1,10-23.1,23.1C258.7,86.8,269,96.8,281.7,96.8
	L281.7,96.8z M281.7,86.9c-7.2,0-12.9-5.3-12.9-13.2s5.7-13.2,12.9-13.2c7.2,0,12.9,5.3,12.9,13.2S289,86.9,281.7,86.9L281.7,86.9z
	 M304.8,95.9c8.2,0.9,17.5-2.2,17.5-18V61.3h10.4v34.6h10.1V51.6h-30.7v26.8c0,7.4-2.8,8.8-7.4,8.1V95.9L304.8,95.9z M388.9,50.7
	c-10.9,0-19.8,7.3-22.2,17.6h-6.1V51.6h-10.1v44.4h10.1V78h5.8c1.9,10.9,11.1,18.8,22.4,18.8c12.7,0,23.1-10.1,23.1-23.1
	C411.9,60.7,401.6,50.7,388.9,50.7L388.9,50.7z M388.9,86.9c-7.2,0-12.9-5.3-12.9-13.2c0-8.2,5.7-13.2,12.9-13.2
	c7.2,0,12.9,5.3,12.9,13.2S396.1,86.9,388.9,86.9L388.9,86.9z M444.9,51.6h-33v9.8h11.4v34.6h10.1V61.3h11.4V51.6L444.9,51.6z"/>
</svg>
